# xmcd
#
# Track frame offsets:
#	150
#	14270
#	31482
#	46732
#	65250
#	81415
#	97587
#	115952
#	129560
#	146995
#	164225
#	180240
#	196400
#	210485
#
# Disc length: 3003 seconds
#
# Revision: 1
# Processed by: cddbd v1.5.2PL0 Copyright (c) Steve Scherf et al.
# Submitted via: audiograbber 1.83.01
#
DISCID=be0bb90e
DTITLE=Gino and Geno - Só As Melhores
DYEAR=1900
DGENRE=
TTITLE0=Cara de Boi
TTITLE1=Vou Beber Veneno
TTITLE2=O Que Eu Tô Fazendo Aqui?
TTITLE3=Apaixonado Por Você
TTITLE4=Ela Chorou de Amor
TTITLE5=Bate a Bota no Chão
TTITLE6=Coração Cigano
TTITLE7=Nóis Enverga Mais Num Quebra
TTITLE8=As Águas do São Francisco
TTITLE9=Mulher Que Não Dá Voa
TTITLE10=Pinga na Garganta
TTITLE11=Paixão Mineira
TTITLE12=Só Você
TTITLE13=Blusa Amarela
EXTD=
EXTT0=
EXTT1=
EXTT2=
EXTT3=
EXTT4=
EXTT5=
EXTT6=
EXTT7=
EXTT8=
EXTT9=
EXTT10=
EXTT11=
EXTT12=
EXTT13=
PLAYORDER=
